Patient4_TMGait_0pt6_02_right_42_EMG.mot
version=1
nRows=13
nColumns=33
inDegrees=no
endheader
time	1LAddLong	2LGlutMax	3LGlutMed	4LIliopsoas	5LSemiMemb	6LBicFemLong	7LRecFem	8LVastMed	9LVastLat	10LGasMed	11LTibAnt	12lTibPost	13LPeroneusLong	14LSol	15LExtDigLong	16LFlexDigLong	17RAddLong	18RGlutMax	19RGlutMed	20RIliopsoas	21RSemiMemb	22RBicFemLong	23RRecFem	24RVastMed	25RVastLat	26RGasMed	27RTibAnt	28RTibPost	29RPeroneusLong	30RSol	31RExtDigLong	32RFlexDigLong
50.73	0.002289	-0.070953	0.025635	0.007629	0.034943	0.069885	0.13351	0.011139	-0.028076	-0.048065	-0.058746	0.023193	-0.035858	0.053406	-0.14648	0.005035	-0.01709	-0.16632	-0.024109	-0.19394	-0.050354	-0.009155	0.074463	-0.052643	-0.009918	0.005341	-0.2272	0.000916	-0.19913	-0.061035	-0.001831	0.003357
50.731	-0.002747	-0.078125	-0.067749	-0.005188	-0.010681	0.088654	0.055847	0.02243	-0.014954	0.003357	-0.005646	0.022583	-0.19791	0.027008	-0.19409	-0.003357	0.002136	-0.16708	-0.24445	0.01358	-0.040741	-0.009918	0.001984	-0.098877	-0.010986	0.001221	-0.026703	-0.000458	0.45197	-0.07782	-0.00412	-0.003204
50.732	-0.006866	-0.033875	0.074005	-0.012665	-0.02121	0.11429	0.007172	0.020752	0.012665	0.046692	0.048981	0.027466	-0.20355	0.11215	-0.065918	-0.000153	0.013275	-0.18906	-0.071869	0.18738	-0.039215	0.001068	0.011902	-0.098419	0.01236	0.003204	0.1265	-0.001526	0.81329	-0.045166	0.004425	-0.005188
50.733	-0.009918	-0.031586	0.12878	0.001526	-0.057678	0.058899	0.005188	0.020142	0.030365	0.070801	0.028076	0.029602	0.092163	0.028839	-0.11276	0.001984	0.026398	-0.16556	-0.007477	0.30884	-0.045776	-0.017853	-0.015564	-0.093231	0.003662	-0.010071	0.33966	-0.002747	0.43747	0.10239	-0.00473	-0.001221
50.734	0.009918	-0.011902	0.03006	0.000458	0.020599	-0.056	0.039978	0.01297	0.054779	0.078888	0.02655	0.023651	-0.17258	-0.085602	-0.095215	-0.010223	0.014648	-0.19531	-0.083008	0.25879	-0.054932	0.00061	-0.027771	-0.089874	0.013123	-0.013885	0.58731	-0.002289	0.11765	0.19852	-0.004883	-0.001373
50.735	0.011292	-0.004425	0.094452	0.002747	0.080719	-0.10483	0.075226	-0.010834	0.020752	0.075531	-0.002594	0.020599	-0.31921	-0.21057	-0.094604	0.00473	0.016632	-0.19119	-0.074463	0.028534	-0.050659	-0.005341	0.022583	-0.056915	0.008698	-0.011444	-0.15579	-0.005646	0.21805	0.066681	-0.005951	0.007629
50.736	0.006714	0.005951	0.069733	0.04837	0.061951	-0.041962	0.10895	0.007019	-0.001831	0.05249	-0.023956	0.016937	-0.050354	-0.23071	-0.075836	0	0.02182	-0.19974	-0.15656	-0.035553	-0.050354	-0.009918	0.052795	-0.064392	0.010376	-0.00473	-0.050354	-0.002899	0.18219	0.073853	-0.008698	0.007782
50.737	0.000153	0.006409	-0.061798	0.030975	0.020142	0.032806	0.081177	0.002441	0.0354	0.012054	-0.012512	0.016785	0.41061	-0.1648	0.046082	-0.001831	0.018311	-0.21805	-0.095062	-0.029297	-0.027771	0.004425	0.027771	-0.03067	0.002441	-0.00885	0.16556	-0.003662	-0.033722	0.072174	-0.005035	0.002136
50.738	-0.003052	0.030365	0.010681	-0.003052	-0.034943	0.037384	0.099945	-0.002441	0.11017	-0.057068	-0.013275	0.019226	0.23712	-0.077667	0.12634	0.006714	0.019379	-0.18723	-0.012054	-0.090485	-0.023346	0.002899	0.030975	-0.036621	0.019379	-0.000916	-0.23956	-0.004272	-0.094147	0.065002	-0.001526	-0.003662
50.739	-0.003967	0.062866	-0.004425	-0.010529	-0.11917	0.041809	0.15091	0.014191	0.079651	-0.054779	0.002594	0.020905	-0.055695	-0.14267	0.07782	0.015259	0.028229	-0.17593	0.062714	-0.097351	-0.049133	0.004883	0.063934	-0.048676	-0.000916	0.002594	-0.5072	-0.006256	0.003815	-0.018005	-0.003815	-0.001221
50.74	-0.003662	0.053864	-0.093231	-0.023193	-0.18768	0.032196	0.14847	0.014191	-0.02243	-0.066833	0.015259	0.015259	-0.084839	-0.039063	0.1535	0.027313	0.11353	-0.16571	-0.081024	0.000458	-0.096893	0.019226	0.075684	-0.062408	0.000916	-0.009918	-0.54596	-0.008087	0.23804	-0.019531	-0.005188	-0.002289
50.741	0.00824	0.054779	-0.13489	-0.02594	-0.14206	-0.041046	0.16007	0.003815	-0.049133	-0.036774	0.014801	0.00885	0.036011	-0.11063	0.15869	0.010223	0.12207	-0.14099	-0.20538	0.037384	-0.078125	-0.00412	0.013733	-0.12192	-0.007172	-0.011902	-0.23117	-0.002899	0.39154	-0.049438	-0.002747	-0.001831
50.742	0.012207	0.059052	0.20523	-0.014191	0.013428	-0.12985	0.15808	0.001831	-0.052795	-0.055237	0.005798	0.014038	0.15823	-0.13657	0.11444	-0.009766	0.073547	-0.14725	-0.2063	-0.041504	-0.067596	-0.015259	-0.037994	-0.13809	0.006104	-0.009003	0.11231	-0.001984	0.13779	-0.044403	-0.002441	0.003052
